# xmcd
#
# Track frame offsets: 
#        150
#        18635
#        43982
#        68800
#        83027
#        101297
#        123372
#        144222
#        156197
#        175767
#        199225
#        226595
#        248795
#
# Disc length: 3681 seconds
#
# Revision: 5
# Processed by: cddbd v1.5.2PL0 Copyright (c) Steve Scherf et al.
# Submitted via: ExactAudioCopyFreeDBPlugin 1.0
#
DISCID=a20e5f0d
DTITLE=Nicole Willis - Soul Makeover
DYEAR=2000
DGENRE=Soul
TTITLE0=I'm Not Going
TTITLE1=All The Time
TTITLE2=Bliss of Life
TTITLE3=Heed the Sign
TTITLE4=Soul Makeover
TTITLE5=Siesta
TTITLE6=Curiosity
TTITLE7=Gonna Get Yours
TTITLE8=Xibeca
TTITLE9=Dinosauri
TTITLE10=Curiosity (Candy Apple Remix)
TTITLE11=All the Time (Roberto Rodrigues Remix)
TTITLE12=Heed the Sign (Maurice Fulton Remix)
EXTD=
EXTT0=
EXTT1=
EXTT2=
EXTT3=
EXTT4=
EXTT5=
EXTT6=
EXTT7=
EXTT8=
EXTT9=
EXTT10=
EXTT11=
EXTT12=
PLAYORDER=
